<svg xmlns="http://www.w3.org/2000/svg" xmlns:xlink="http://www.w3.org/1999/xlink" width="1472" zoomAndPan="magnify" viewBox="0 0 1104 623.999998" height="832" preserveAspectRatio="xMidYMid meet" version="1.0"><defs><clipPath id="2edbbd3457"><path d="M 414.570312 174 L 547.1875 174 L 547.1875 449.914062 L 414.570312 449.914062 Z M 414.570312 174 " clip-rule="nonzero"/></clipPath><clipPath id="0b0dba6f63"><path d="M 422.535156 357.914062 C 417.726562 343.820312 414.570312 327.695312 414.570312 311.917969 C 414.570312 296.136719 417.277344 280.953125 422.085938 266.960938 C 422.234375 266.660156 422.234375 266.363281 422.386719 266.066406 C 441.621094 213.515625 492.421875 174.8125 547.1875 174.066406 L 547.1875 449.914062 C 492.121094 449.167969 441.324219 411.058594 422.535156 357.914062 Z M 422.535156 357.914062 " clip-rule="nonzero"/></clipPath><clipPath id="065c962b6d"><path d="M 556.800781 174.078125 L 689.417969 174.078125 L 689.417969 450 L 556.800781 450 Z M 556.800781 174.078125 " clip-rule="nonzero"/></clipPath><clipPath id="8b2c10f814"><path d="M 681.453125 266.074219 C 686.261719 280.171875 689.417969 296.296875 689.417969 312.074219 C 689.417969 327.855469 686.714844 343.039062 681.90625 357.03125 C 681.753906 357.328125 681.753906 357.628906 681.605469 357.925781 C 662.367188 410.472656 611.570312 449.179688 556.800781 449.921875 L 556.800781 174.078125 C 611.871094 174.820312 662.667969 212.929688 681.453125 266.074219 Z M 681.453125 266.074219 " clip-rule="nonzero"/></clipPath></defs><rect x="-110.4" width="1324.8" fill="#ffffff" y="-62.4" height="748.799998" fill-opacity="1"/><rect x="-110.4" width="1324.8" fill="#ffffff" y="-62.4" height="748.799998" fill-opacity="1"/><path stroke-linecap="butt" transform="matrix(0.75, -0.000000000000002139, 0.000000000000002139, 0.75, 485.809636, 395.065783)" fill="none" stroke-linejoin="miter" d="M -0.00138956 4.000831 L 79.441322 4.000831 " stroke="#ffffff" stroke-width="8" stroke-opacity="1" stroke-miterlimit="4"/><g clip-path="url(#2edbbd3457)"><g clip-path="url(#0b0dba6f63)"><path fill="#17c8b4" d="M 414.570312 449.914062 L 414.570312 174.316406 L 547.1875 174.316406 L 547.1875 449.914062 Z M 414.570312 449.914062 " fill-opacity="1" fill-rule="nonzero"/></g></g><g clip-path="url(#065c962b6d)"><g clip-path="url(#8b2c10f814)"><path fill="#061127" d="M 689.417969 174.078125 L 689.417969 449.675781 L 556.800781 449.675781 L 556.800781 174.078125 Z M 689.417969 174.078125 " fill-opacity="1" fill-rule="nonzero"/></g></g></svg>