<svg xmlns="http://www.w3.org/2000/svg" xmlns:xlink="http://www.w3.org/1999/xlink" width="1472" zoomAndPan="magnify" viewBox="0 0 1104 623.999998" height="832" preserveAspectRatio="xMidYMid meet" version="1.0"><defs><g/><clipPath id="10c94005cb"><path d="M 18.292969 174 L 150.910156 174 L 150.910156 449.914062 L 18.292969 449.914062 Z M 18.292969 174 " clip-rule="nonzero"/></clipPath><clipPath id="42fb55bcd6"><path d="M 26.257812 357.917969 C 21.449219 343.820312 18.292969 327.699219 18.292969 311.917969 C 18.292969 296.136719 21 280.953125 25.808594 266.960938 C 25.957031 266.664062 25.957031 266.367188 26.109375 266.066406 C 45.34375 213.519531 96.144531 174.8125 150.910156 174.070312 L 150.910156 449.914062 C 95.84375 449.171875 45.046875 411.0625 26.257812 357.917969 Z M 26.257812 357.917969 " clip-rule="nonzero"/></clipPath><clipPath id="260c4a842e"><path d="M 160.519531 174.070312 L 293.136719 174.070312 L 293.136719 450 L 160.519531 450 Z M 160.519531 174.070312 " clip-rule="nonzero"/></clipPath><clipPath id="b45c7caafc"><path d="M 285.171875 266.070312 C 289.980469 280.164062 293.136719 296.289062 293.136719 312.066406 C 293.136719 327.847656 290.429688 343.03125 285.621094 357.023438 C 285.472656 357.324219 285.472656 357.621094 285.320312 357.917969 C 266.085938 410.464844 215.285156 449.171875 160.519531 449.914062 L 160.519531 174.070312 C 215.585938 174.816406 266.382812 212.921875 285.171875 266.070312 Z M 285.171875 266.070312 " clip-rule="nonzero"/></clipPath></defs><path stroke-linecap="butt" transform="matrix(0.75, -0.000000000000002139, 0.000000000000002139, 0.75, 89.524802, 395.065783)" fill="none" stroke-linejoin="miter" d="M -0.00181958 4.000831 L 79.440892 4.000831 " stroke="#ffffff" stroke-width="8" stroke-opacity="1" stroke-miterlimit="4"/><g clip-path="url(#10c94005cb)"><g clip-path="url(#42fb55bcd6)"><path fill="#17c8b4" d="M 18.292969 449.914062 L 18.292969 174.320312 L 150.910156 174.320312 L 150.910156 449.914062 Z M 18.292969 449.914062 " fill-opacity="1" fill-rule="nonzero"/></g></g><g clip-path="url(#260c4a842e)"><g clip-path="url(#b45c7caafc)"><path fill="#061127" d="M 293.136719 174.070312 L 293.136719 449.667969 L 160.519531 449.667969 L 160.519531 174.070312 Z M 293.136719 174.070312 " fill-opacity="1" fill-rule="nonzero"/></g></g><path stroke-linecap="butt" transform="matrix(0.00000000557888, 3.196464, -3.196464, 0.00000000557888, 335.816413, 163.589149)" fill="none" stroke-linejoin="miter" d="M 0.000217413 0.999642 L 92.870159 0.999642 " stroke="#b4a77a" stroke-width="2" stroke-opacity="1" stroke-miterlimit="4"/><g fill="#000000" fill-opacity="1"><g transform="translate(366.974129, 379.682417)"><g><path d="M 44.6875 2.125 C 36.15625 2.125 28.898438 1.242188 22.921875 -0.515625 C 16.953125 -2.273438 11.335938 -4.445312 6.078125 -7.03125 L 6.078125 -26.609375 L 7.1875 -26.609375 C 12.34375 -21.765625 18.179688 -18.015625 24.703125 -15.359375 C 31.234375 -12.703125 37.523438 -11.375 43.578125 -11.375 C 52.203125 -11.375 58.722656 -13.175781 63.140625 -16.78125 C 67.566406 -20.382812 69.78125 -25.132812 69.78125 -31.03125 C 69.78125 -35.707031 68.625 -39.519531 66.3125 -42.46875 C 64 -45.414062 60.316406 -47.597656 55.265625 -49.015625 C 51.628906 -50.066406 48.3125 -50.9375 45.3125 -51.625 C 42.3125 -52.3125 38.550781 -53.234375 34.03125 -54.390625 C 29.96875 -55.441406 26.332031 -56.78125 23.125 -58.40625 C 19.914062 -60.039062 17.078125 -62.175781 14.609375 -64.8125 C 12.179688 -67.382812 10.296875 -70.421875 8.953125 -73.921875 C 7.617188 -77.421875 6.953125 -81.460938 6.953125 -86.046875 C 6.953125 -95.566406 10.660156 -103.550781 18.078125 -110 C 25.492188 -116.445312 34.96875 -119.671875 46.5 -119.671875 C 53.070312 -119.671875 59.289062 -119.015625 65.15625 -117.703125 C 71.03125 -116.390625 76.46875 -114.519531 81.46875 -112.09375 L 81.46875 -93.390625 L 80.28125 -93.390625 C 76.539062 -96.804688 71.75 -99.789062 65.90625 -102.34375 C 60.070312 -104.894531 53.941406 -106.171875 47.515625 -106.171875 C 40.253906 -106.171875 34.382812 -104.472656 29.90625 -101.078125 C 25.4375 -97.691406 23.203125 -93.234375 23.203125 -87.703125 C 23.203125 -82.703125 24.519531 -78.726562 27.15625 -75.78125 C 29.789062 -72.832031 33.609375 -70.675781 38.609375 -69.3125 C 41.921875 -68.414062 45.96875 -67.398438 50.75 -66.265625 C 55.539062 -65.140625 59.515625 -64.101562 62.671875 -63.15625 C 70.785156 -60.675781 76.707031 -56.9375 80.4375 -51.9375 C 84.175781 -46.9375 86.046875 -40.78125 86.046875 -33.46875 C 86.046875 -28.894531 85.109375 -24.367188 83.234375 -19.890625 C 81.367188 -15.421875 78.753906 -11.632812 75.390625 -8.53125 C 71.597656 -5.101562 67.320312 -2.46875 62.5625 -0.625 C 57.800781 1.207031 51.84375 2.125 44.6875 2.125 Z M 44.6875 2.125 "/></g></g></g><g fill="#000000" fill-opacity="1"><g transform="translate(457.042696, 379.682417)"><g><path d="M 45.78125 1.96875 C 39.726562 1.96875 34.175781 1.035156 29.125 -0.828125 C 24.070312 -2.691406 19.734375 -5.519531 16.109375 -9.3125 C 12.472656 -13.101562 9.65625 -17.878906 7.65625 -23.640625 C 5.65625 -29.398438 4.65625 -36.175781 4.65625 -43.96875 C 4.65625 -51.707031 5.691406 -58.390625 7.765625 -64.015625 C 9.847656 -69.648438 12.628906 -74.390625 16.109375 -78.234375 C 19.578125 -82.078125 23.898438 -85.035156 29.078125 -87.109375 C 34.265625 -89.191406 39.832031 -90.234375 45.78125 -90.234375 C 50.625 -90.234375 55.296875 -89.546875 59.796875 -88.171875 C 64.296875 -86.804688 68.3125 -85.226562 71.84375 -83.4375 L 71.84375 -66.78125 L 70.96875 -66.78125 C 69.914062 -67.675781 68.5625 -68.703125 66.90625 -69.859375 C 65.25 -71.015625 63.234375 -72.203125 60.859375 -73.421875 C 58.804688 -74.472656 56.382812 -75.390625 53.59375 -76.171875 C 50.8125 -76.960938 48.128906 -77.359375 45.546875 -77.359375 C 37.867188 -77.359375 31.695312 -74.453125 27.03125 -68.640625 C 22.375 -62.828125 20.046875 -54.601562 20.046875 -43.96875 C 20.046875 -33.550781 22.296875 -25.429688 26.796875 -19.609375 C 31.296875 -13.796875 37.546875 -10.890625 45.546875 -10.890625 C 50.390625 -10.890625 54.992188 -11.890625 59.359375 -13.890625 C 63.734375 -15.890625 67.601562 -18.46875 70.96875 -21.625 L 71.84375 -21.625 L 71.84375 -4.96875 C 70.363281 -4.289062 68.519531 -3.460938 66.3125 -2.484375 C 64.101562 -1.515625 62.101562 -0.789062 60.3125 -0.3125 C 57.78125 0.425781 55.515625 0.988281 53.515625 1.375 C 51.515625 1.769531 48.9375 1.96875 45.78125 1.96875 Z M 45.78125 1.96875 "/></g></g></g><g fill="#000000" fill-opacity="1"><g transform="translate(531.639363, 379.682417)"><g><path d="M 60 -21.703125 L 60 -46.1875 C 56.46875 -45.863281 52.003906 -45.425781 46.609375 -44.875 C 41.210938 -44.320312 36.859375 -43.546875 33.546875 -42.546875 C 29.597656 -41.335938 26.332031 -39.484375 23.75 -36.984375 C 21.175781 -34.484375 19.890625 -31 19.890625 -26.53125 C 19.890625 -21.476562 21.3125 -17.660156 24.15625 -15.078125 C 27 -12.492188 31.15625 -11.203125 36.625 -11.203125 C 41.3125 -11.203125 45.546875 -12.210938 49.328125 -14.234375 C 53.117188 -16.265625 56.675781 -18.753906 60 -21.703125 Z M 60 -9.390625 C 58.789062 -8.492188 57.171875 -7.242188 55.140625 -5.640625 C 53.109375 -4.035156 51.148438 -2.757812 49.265625 -1.8125 C 46.628906 -0.445312 44.085938 0.601562 41.640625 1.34375 C 39.191406 2.082031 35.757812 2.453125 31.34375 2.453125 C 27.707031 2.453125 24.257812 1.765625 21 0.390625 C 17.738281 -0.972656 14.867188 -2.894531 12.390625 -5.375 C 10.023438 -7.789062 8.128906 -10.773438 6.703125 -14.328125 C 5.285156 -17.878906 4.578125 -21.628906 4.578125 -25.578125 C 4.578125 -31.679688 5.863281 -36.878906 8.4375 -41.171875 C 11.019531 -45.460938 15.101562 -48.867188 20.6875 -51.390625 C 25.632812 -53.648438 31.472656 -55.210938 38.203125 -56.078125 C 44.941406 -56.953125 52.207031 -57.597656 60 -58.015625 L 60 -60.859375 C 60 -64.335938 59.472656 -67.140625 58.421875 -69.265625 C 57.367188 -71.398438 55.894531 -73.046875 54 -74.203125 C 52.101562 -75.410156 49.785156 -76.210938 47.046875 -76.609375 C 44.304688 -77.003906 41.492188 -77.203125 38.609375 -77.203125 C 35.179688 -77.203125 31.148438 -76.6875 26.515625 -75.65625 C 21.890625 -74.632812 17.257812 -73.148438 12.625 -71.203125 L 11.765625 -71.203125 L 11.765625 -86.28125 C 14.503906 -87.070312 18.425781 -87.941406 23.53125 -88.890625 C 28.632812 -89.835938 33.6875 -90.3125 38.6875 -90.3125 C 44.738281 -90.3125 49.84375 -89.835938 54 -88.890625 C 58.15625 -87.941406 61.890625 -86.226562 65.203125 -83.75 C 68.410156 -81.332031 70.800781 -78.203125 72.375 -74.359375 C 73.957031 -70.515625 74.75 -65.832031 74.75 -60.3125 L 74.75 0 L 60 0 Z M 60 -9.390625 "/></g></g></g><g fill="#000000" fill-opacity="1"><g transform="translate(616.498006, 379.682417)"><g><path d="M 57.46875 -72.234375 L 56.6875 -72.234375 C 55.570312 -72.546875 54.394531 -72.738281 53.15625 -72.8125 C 51.925781 -72.894531 50.441406 -72.9375 48.703125 -72.9375 C 44.703125 -72.9375 40.726562 -72.066406 36.78125 -70.328125 C 32.832031 -68.597656 29.097656 -66.019531 25.578125 -62.59375 L 25.578125 0 L 10.734375 0 L 10.734375 -88.171875 L 25.578125 -88.171875 L 25.578125 -75.078125 C 30.992188 -79.859375 35.710938 -83.234375 39.734375 -85.203125 C 43.765625 -87.179688 47.675781 -88.171875 51.46875 -88.171875 C 53 -88.171875 54.144531 -88.128906 54.90625 -88.046875 C 55.664062 -87.972656 56.519531 -87.859375 57.46875 -87.703125 Z M 57.46875 -72.234375 "/></g></g></g><g fill="#000000" fill-opacity="1"><g transform="translate(674.754436, 379.682417)"><g><path d="M 60 -21.703125 L 60 -46.1875 C 56.46875 -45.863281 52.003906 -45.425781 46.609375 -44.875 C 41.210938 -44.320312 36.859375 -43.546875 33.546875 -42.546875 C 29.597656 -41.335938 26.332031 -39.484375 23.75 -36.984375 C 21.175781 -34.484375 19.890625 -31 19.890625 -26.53125 C 19.890625 -21.476562 21.3125 -17.660156 24.15625 -15.078125 C 27 -12.492188 31.15625 -11.203125 36.625 -11.203125 C 41.3125 -11.203125 45.546875 -12.210938 49.328125 -14.234375 C 53.117188 -16.265625 56.675781 -18.753906 60 -21.703125 Z M 60 -9.390625 C 58.789062 -8.492188 57.171875 -7.242188 55.140625 -5.640625 C 53.109375 -4.035156 51.148438 -2.757812 49.265625 -1.8125 C 46.628906 -0.445312 44.085938 0.601562 41.640625 1.34375 C 39.191406 2.082031 35.757812 2.453125 31.34375 2.453125 C 27.707031 2.453125 24.257812 1.765625 21 0.390625 C 17.738281 -0.972656 14.867188 -2.894531 12.390625 -5.375 C 10.023438 -7.789062 8.128906 -10.773438 6.703125 -14.328125 C 5.285156 -17.878906 4.578125 -21.628906 4.578125 -25.578125 C 4.578125 -31.679688 5.863281 -36.878906 8.4375 -41.171875 C 11.019531 -45.460938 15.101562 -48.867188 20.6875 -51.390625 C 25.632812 -53.648438 31.472656 -55.210938 38.203125 -56.078125 C 44.941406 -56.953125 52.207031 -57.597656 60 -58.015625 L 60 -60.859375 C 60 -64.335938 59.472656 -67.140625 58.421875 -69.265625 C 57.367188 -71.398438 55.894531 -73.046875 54 -74.203125 C 52.101562 -75.410156 49.785156 -76.210938 47.046875 -76.609375 C 44.304688 -77.003906 41.492188 -77.203125 38.609375 -77.203125 C 35.179688 -77.203125 31.148438 -76.6875 26.515625 -75.65625 C 21.890625 -74.632812 17.257812 -73.148438 12.625 -71.203125 L 11.765625 -71.203125 L 11.765625 -86.28125 C 14.503906 -87.070312 18.425781 -87.941406 23.53125 -88.890625 C 28.632812 -89.835938 33.6875 -90.3125 38.6875 -90.3125 C 44.738281 -90.3125 49.84375 -89.835938 54 -88.890625 C 58.15625 -87.941406 61.890625 -86.226562 65.203125 -83.75 C 68.410156 -81.332031 70.800781 -78.203125 72.375 -74.359375 C 73.957031 -70.515625 74.75 -65.832031 74.75 -60.3125 L 74.75 0 L 60 0 Z M 60 -9.390625 "/></g></g></g><g fill="#000000" fill-opacity="1"><g transform="translate(759.613078, 379.682417)"><g><path d="M 69.390625 -44.359375 C 69.390625 -54.890625 67.785156 -62.878906 64.578125 -68.328125 C 61.367188 -73.773438 56.207031 -76.5 49.09375 -76.5 C 45.039062 -76.5 40.945312 -75.550781 36.8125 -73.65625 C 32.6875 -71.757812 28.941406 -69.363281 25.578125 -66.46875 L 25.578125 -15.953125 C 29.316406 -14.109375 32.628906 -12.800781 35.515625 -12.03125 C 38.410156 -11.269531 41.597656 -10.890625 45.078125 -10.890625 C 52.648438 -10.890625 58.59375 -13.570312 62.90625 -18.9375 C 67.226562 -24.3125 69.390625 -32.785156 69.390625 -44.359375 Z M 84.703125 -45.546875 C 84.703125 -31.128906 81.203125 -19.523438 74.203125 -10.734375 C 67.203125 -1.941406 58.441406 2.453125 47.921875 2.453125 C 43.128906 2.453125 39.035156 1.859375 35.640625 0.671875 C 32.242188 -0.515625 28.890625 -2.109375 25.578125 -4.109375 L 24.625 0 L 10.734375 0 L 10.734375 -122.828125 L 25.578125 -122.828125 L 25.578125 -78.9375 C 29.316406 -82.3125 33.367188 -85.101562 37.734375 -87.3125 C 42.097656 -89.519531 47.046875 -90.625 52.578125 -90.625 C 62.523438 -90.625 70.363281 -86.632812 76.09375 -78.65625 C 81.832031 -70.6875 84.703125 -59.648438 84.703125 -45.546875 Z M 84.703125 -45.546875 "/></g></g></g><g fill="#000000" fill-opacity="1"><g transform="translate(848.971182, 379.682417)"><g><path d="M 25.890625 0 L 11.046875 0 L 11.046875 -88.171875 L 25.890625 -88.171875 Z M 26.921875 -102.9375 L 10.03125 -102.9375 L 10.03125 -118.328125 L 26.921875 -118.328125 Z M 26.921875 -102.9375 "/></g></g></g><g fill="#000000" fill-opacity="1"><g transform="translate(885.914285, 379.682417)"><g><path d="M 37.421875 1.734375 C 29.316406 1.734375 23 -0.566406 18.46875 -5.171875 C 13.945312 -9.773438 11.6875 -17.050781 11.6875 -27 L 11.6875 -75.859375 L 1.65625 -75.859375 L 1.65625 -88.171875 L 11.6875 -88.171875 L 11.6875 -113.515625 L 26.53125 -113.515625 L 26.53125 -88.171875 L 53.84375 -88.171875 L 53.84375 -75.859375 L 26.53125 -75.859375 L 26.53125 -33.9375 C 26.53125 -29.46875 26.609375 -26.019531 26.765625 -23.59375 C 26.921875 -21.175781 27.523438 -18.914062 28.578125 -16.8125 C 29.472656 -14.96875 30.921875 -13.582031 32.921875 -12.65625 C 34.921875 -11.738281 37.628906 -11.28125 41.046875 -11.28125 C 43.472656 -11.28125 45.816406 -11.632812 48.078125 -12.34375 C 50.335938 -13.0625 51.96875 -13.65625 52.96875 -14.125 L 53.84375 -14.125 L 53.84375 -0.796875 C 51.050781 -0.00390625 48.21875 0.613281 45.34375 1.0625 C 42.476562 1.507812 39.835938 1.734375 37.421875 1.734375 Z M 37.421875 1.734375 "/></g></g></g><g fill="#000000" fill-opacity="1"><g transform="translate(939.987008, 379.682417)"><g><path d="M 49.015625 2.046875 C 34.960938 2.046875 24.054688 -1.910156 16.296875 -9.828125 C 8.535156 -17.742188 4.65625 -28.992188 4.65625 -43.578125 C 4.65625 -57.941406 8.414062 -69.375 15.9375 -77.875 C 23.46875 -86.375 33.3125 -90.625 45.46875 -90.625 C 50.945312 -90.625 55.789062 -89.832031 60 -88.25 C 64.207031 -86.675781 67.890625 -84.207031 71.046875 -80.84375 C 74.203125 -77.46875 76.625 -73.34375 78.3125 -68.46875 C 80 -63.601562 80.84375 -57.644531 80.84375 -50.59375 L 80.84375 -42.546875 L 19.734375 -42.546875 C 19.734375 -32.285156 22.3125 -24.441406 27.46875 -19.015625 C 32.625 -13.597656 39.753906 -10.890625 48.859375 -10.890625 C 52.128906 -10.890625 55.328125 -11.257812 58.453125 -12 C 61.585938 -12.738281 64.414062 -13.6875 66.9375 -14.84375 C 69.625 -16.050781 71.890625 -17.21875 73.734375 -18.34375 C 75.578125 -19.476562 77.101562 -20.546875 78.3125 -21.546875 L 79.171875 -21.546875 L 79.171875 -5.375 C 77.441406 -4.6875 75.285156 -3.828125 72.703125 -2.796875 C 70.128906 -1.773438 67.816406 -0.972656 65.765625 -0.390625 C 62.867188 0.398438 60.25 1.003906 57.90625 1.421875 C 55.5625 1.835938 52.597656 2.046875 49.015625 2.046875 Z M 66.390625 -53.921875 C 66.285156 -57.921875 65.8125 -61.363281 64.96875 -64.25 C 64.125 -67.144531 62.914062 -69.59375 61.34375 -71.59375 C 59.601562 -73.8125 57.375 -75.5 54.65625 -76.65625 C 51.945312 -77.8125 48.597656 -78.390625 44.609375 -78.390625 C 40.660156 -78.390625 37.300781 -77.796875 34.53125 -76.609375 C 31.769531 -75.429688 29.257812 -73.707031 27 -71.4375 C 24.789062 -69.125 23.101562 -66.554688 21.9375 -63.734375 C 20.78125 -60.921875 20.046875 -57.648438 19.734375 -53.921875 Z M 66.390625 -53.921875 "/></g></g></g></svg>